<svg width="15" height="16" viewBox="0 0 15 16" fill="none" xmlns="http://www.w3.org/2000/svg">
<path d="M1.15385 14.8571H13.8462V5.71429H1.15385V14.8571ZM4.61538 4V1.42857C4.61538 1.34524 4.58834 1.27679 4.53425 1.22321C4.48017 1.16964 4.41106 1.14286 4.32692 1.14286H3.75C3.66587 1.14286 3.59675 1.16964 3.54267 1.22321C3.48858 1.27679 3.46154 1.34524 3.46154 1.42857V4C3.46154 4.08333 3.48858 4.15179 3.54267 4.20536C3.59675 4.25893 3.66587 4.28571 3.75 4.28571H4.32692C4.41106 4.28571 4.48017 4.25893 4.53425 4.20536C4.58834 4.15179 4.61538 4.08333 4.61538 4ZM11.5385 4V1.42857C11.5385 1.34524 11.5114 1.27679 11.4573 1.22321C11.4032 1.16964 11.3341 1.14286 11.25 1.14286H10.6731C10.5889 1.14286 10.5198 1.16964 10.4657 1.22321C10.4117 1.27679 10.3846 1.34524 10.3846 1.42857V4C10.3846 4.08333 10.4117 4.15179 10.4657 4.20536C10.5198 4.25893 10.5889 4.28571 10.6731 4.28571H11.25C11.3341 4.28571 11.4032 4.25893 11.4573 4.20536C11.5114 4.15179 11.5385 4.08333 11.5385 4ZM15 3.42857V14.8571C15 15.1667 14.8858 15.4345 14.6575 15.6607C14.4291 15.8869 14.1587 16 13.8462 16H1.15385C0.841346 16 0.570913 15.8869 0.342548 15.6607C0.114183 15.4345 0 15.1667 0 14.8571V3.42857C0 3.11905 0.114183 2.85119 0.342548 2.625C0.570913 2.39881 0.841346 2.28571 1.15385 2.28571H2.30769V1.42857C2.30769 1.03571 2.44892 0.699405 2.73137 0.419643C3.01382 0.139881 3.35337 0 3.75 0H4.32692C4.72356 0 5.0631 0.139881 5.34555 0.419643C5.628 0.699405 5.76923 1.03571 5.76923 1.42857V2.28571H9.23077V1.42857C9.23077 1.03571 9.37199 0.699405 9.65445 0.419643C9.9369 0.139881 10.2764 0 10.6731 0H11.25C11.6466 0 11.9862 0.139881 12.2686 0.419643C12.5511 0.699405 12.6923 1.03571 12.6923 1.42857V2.28571H13.8462C14.1587 2.28571 14.4291 2.39881 14.6575 2.625C14.8858 2.85119 15 3.11905 15 3.42857Z" fill="#1A2B49"/>
</svg>
