<svg width="60" height="60" viewBox="0 0 60 60" fill="none" xmlns="http://www.w3.org/2000/svg">
<path d="M28.75 33.75H33.75V58.75H28.75C28.087 58.75 27.4511 58.4866 26.9822 58.0178C26.5134 57.5489 26.25 56.913 26.25 56.25V36.25C26.25 35.587 26.5134 34.9511 26.9822 34.4822C27.4511 34.0134 28.087 33.75 28.75 33.75Z" fill="black"/>
<path d="M50 33.75H42.5V41.25H50V33.75Z" fill="black"/>
<path d="M8.75 1.25V26.25H3.75C3.08696 26.25 2.45107 25.9866 1.98223 25.5178C1.51339 25.0489 1.25 24.413 1.25 23.75V3.75C1.25 3.08696 1.51339 2.45107 1.98223 1.98223C2.45107 1.51339 3.08696 1.25 3.75 1.25H8.75Z" fill="black"/>
<path d="M25 1.25H17.5V8.75H25V1.25Z" fill="black"/>
<path d="M38.75 15H48.75C49.7446 15 50.6984 15.3951 51.4016 16.0983C52.1049 16.8016 52.5 17.7554 52.5 18.75V25.7375L50.8875 24.1125C50.6521 23.8771 50.3329 23.7449 50 23.7449C49.6671 23.7449 49.3479 23.8771 49.1125 24.1125C48.8771 24.3479 48.7449 24.6671 48.7449 25C48.7449 25.3329 48.8771 25.6521 49.1125 25.8875C53.2125 29.9875 52.95 29.775 53.275 29.9C54.2875 30.325 54.525 29.775 58.3875 25.8875C58.6229 25.6521 58.7551 25.3329 58.7551 25C58.7551 24.6671 58.6229 24.3479 58.3875 24.1125C58.1521 23.8771 57.8329 23.7449 57.5 23.7449C57.1671 23.7449 56.8479 23.8771 56.6125 24.1125L55 25.7375V18.75C55 17.0924 54.3415 15.5027 53.1694 14.3306C51.9973 13.1585 50.4076 12.5 48.75 12.5H38.75C38.4185 12.5 38.1005 12.6317 37.8661 12.8661C37.6317 13.1005 37.5 13.4185 37.5 13.75C37.5 14.0815 37.6317 14.3995 37.8661 14.6339C38.1005 14.8683 38.4185 15 38.75 15ZM22.4 45.775C22.2625 45.4375 22.4 45.675 18.3875 41.6125C18.1521 41.3771 17.8329 41.2449 17.5 41.2449C17.1671 41.2449 16.8479 41.3771 16.6125 41.6125C16.3771 41.8479 16.2449 42.1671 16.2449 42.5C16.2449 42.8329 16.3771 43.1521 16.6125 43.3875L18.2375 45H11.25C10.2554 45 9.30161 44.6049 8.59835 43.9016C7.89509 43.1984 7.5 42.2446 7.5 41.25V31.25C7.5 30.9185 7.3683 30.6005 7.13388 30.3661C6.89946 30.1317 6.58152 30 6.25 30C5.91848 30 5.60054 30.1317 5.36612 30.3661C5.1317 30.6005 5 30.9185 5 31.25V41.25C5 42.9076 5.65848 44.4973 6.83058 45.6694C8.00269 46.8415 9.5924 47.5 11.25 47.5H18.2375L16.6125 49.1125C16.4362 49.2873 16.316 49.5107 16.2672 49.7541C16.2183 49.9976 16.2431 50.25 16.3383 50.4794C16.4335 50.7087 16.5948 50.9044 16.8017 51.0417C17.0086 51.1789 17.2517 51.2514 17.5 51.25C18.1875 51.25 18.0375 51.25 22.1375 47.1375C22.3109 46.9617 22.4284 46.7385 22.4752 46.496C22.5219 46.2535 22.4957 46.0026 22.4 45.775ZM56.25 32.5H28.75C27.7554 32.5 26.8016 32.8951 26.0983 33.5983C25.3951 34.3016 25 35.2554 25 36.25V56.25C25 57.2446 25.3951 58.1984 26.0983 58.9016C26.8016 59.6049 27.7554 60 28.75 60H56.25C57.2446 60 58.1984 59.6049 58.9016 58.9016C59.6049 58.1984 60 57.2446 60 56.25V36.25C60 35.2554 59.6049 34.3016 58.9016 33.5983C58.1984 32.8951 57.2446 32.5 56.25 32.5ZM48.75 35V40H43.75V35H48.75ZM27.5 56.25V36.25C27.5 35.9185 27.6317 35.6005 27.8661 35.3661C28.1005 35.1317 28.4185 35 28.75 35H32.5V57.5H28.75C28.4185 57.5 28.1005 57.3683 27.8661 57.1339C27.6317 56.8995 27.5 56.5815 27.5 56.25ZM57.5 56.25C57.5 56.5815 57.3683 56.8995 57.1339 57.1339C56.8995 57.3683 56.5815 57.5 56.25 57.5H35V35H41.25V41.25C41.25 41.5815 41.3817 41.8995 41.6161 42.1339C41.8505 42.3683 42.1685 42.5 42.5 42.5H50C50.3315 42.5 50.6495 42.3683 50.8839 42.1339C51.1183 41.8995 51.25 41.5815 51.25 41.25V35H56.25C56.5815 35 56.8995 35.1317 57.1339 35.3661C57.3683 35.6005 57.5 35.9185 57.5 36.25V56.25Z" fill="black"/>
<path d="M41.25 52.5H38.75C38.4185 52.5 38.1005 52.6317 37.8661 52.8661C37.6317 53.1005 37.5 53.4185 37.5 53.75C37.5 54.0815 37.6317 54.3995 37.8661 54.6339C38.1005 54.8683 38.4185 55 38.75 55H41.25C41.5815 55 41.8995 54.8683 42.1339 54.6339C42.3683 54.3995 42.5 54.0815 42.5 53.75C42.5 53.4185 42.3683 53.1005 42.1339 52.8661C41.8995 52.6317 41.5815 52.5 41.25 52.5ZM31.25 27.5C32.2446 27.5 33.1984 27.1049 33.9016 26.4017C34.6049 25.6984 35 24.7446 35 23.75V3.75C35 2.75544 34.6049 1.80161 33.9016 1.09835C33.1984 0.395088 32.2446 0 31.25 0L3.75 0C2.75544 0 1.80161 0.395088 1.09835 1.09835C0.395088 1.80161 0 2.75544 0 3.75L0 23.75C0 24.7446 0.395088 25.6984 1.09835 26.4017C1.80161 27.1049 2.75544 27.5 3.75 27.5H31.25ZM32.5 3.75V23.75C32.5 24.0815 32.3683 24.3995 32.1339 24.6339C31.8995 24.8683 31.5815 25 31.25 25H10V2.5H16.25V8.75C16.25 9.08152 16.3817 9.39946 16.6161 9.63388C16.8505 9.8683 17.1685 10 17.5 10H25C25.3315 10 25.6495 9.8683 25.8839 9.63388C26.1183 9.39946 26.25 9.08152 26.25 8.75V2.5H31.25C31.5815 2.5 31.8995 2.6317 32.1339 2.86612C32.3683 3.10054 32.5 3.41848 32.5 3.75ZM23.75 2.5V7.5H18.75V2.5H23.75ZM2.5 23.75V3.75C2.5 3.41848 2.6317 3.10054 2.86612 2.86612C3.10054 2.6317 3.41848 2.5 3.75 2.5H7.5V25H3.75C3.41848 25 3.10054 24.8683 2.86612 24.6339C2.6317 24.3995 2.5 24.0815 2.5 23.75Z" fill="black"/>
<path d="M16.25 20H13.75C13.4185 20 13.1005 20.1317 12.8661 20.3661C12.6317 20.6005 12.5 20.9185 12.5 21.25C12.5 21.5815 12.6317 21.8995 12.8661 22.1339C13.1005 22.3683 13.4185 22.5 13.75 22.5H16.25C16.5815 22.5 16.8995 22.3683 17.1339 22.1339C17.3683 21.8995 17.5 21.5815 17.5 21.25C17.5 20.9185 17.3683 20.6005 17.1339 20.3661C16.8995 20.1317 16.5815 20 16.25 20Z" fill="black"/>
</svg>
