<svg width="60" height="60" viewBox="0 0 60 60" fill="none" xmlns="http://www.w3.org/2000/svg">
<path d="M19.9382 58.5329C20.7501 59.3495 21.8201 59.8595 22.9661 59.9762C24.1121 60.0929 25.2631 59.809 26.2232 59.1729C27.039 59.7138 27.9963 60.0025 28.9754 60.0029H54.996C56.3231 60.0029 57.5959 59.4762 58.5343 58.5385C59.4728 57.6008 60 56.329 60 55.0029V27.9629C60.0043 26.6581 59.4937 25.4041 58.5788 24.4729L54.7358 20.5429C55.7295 18.5914 56.2473 16.4326 56.247 14.2429C56.2472 10.6347 54.8768 7.16096 52.4127 4.52341C49.9485 1.88587 46.5743 0.281192 42.9718 0.0335939C39.3692 -0.214004 35.8069 0.913933 33.0045 3.18952C30.2022 5.46511 28.3687 8.7187 27.8745 12.2929L24.1815 12.3229C22.8619 12.3285 21.5985 12.8573 20.6688 13.7929L1.46353 32.9829C0.526154 33.925 0 35.1995 0 36.5279C0 37.8564 0.526154 39.1309 1.46353 40.0729L19.9382 58.5329ZM41.9857 5.00295C44.4385 5.0161 46.7871 5.99625 48.5206 7.73027C50.2541 9.4643 51.2325 11.812 51.243 14.2629C51.2435 15.0611 51.1323 15.8555 50.9128 16.6229C50.9128 16.6229 46.9396 12.5929 45.6386 11.2229C44.6921 10.2765 43.409 9.743 42.0699 9.73925C40.7308 9.7355 39.4447 10.2618 38.4929 11.2029C38.2427 11.4629 37.4821 12.2229 37.4821 12.2229L32.9485 12.2629C33.3952 10.2018 34.5363 8.35628 36.1812 7.03486C37.8261 5.71343 39.8751 4.99617 41.9857 5.00295ZM25.973 27.9729C25.9727 27.1872 26.2818 26.4328 26.8337 25.8729C26.8337 25.8729 36.6815 15.9629 39.914 12.6129C40.4858 12.0475 41.2583 11.7311 42.0628 11.733C42.8673 11.7348 43.6383 12.0548 44.2074 12.6229C45.6586 14.1429 50.0921 18.6529 50.0921 18.6529C49.2757 20.1265 48.0803 21.3555 46.6294 22.2129C45.989 21.4276 45.16 20.8171 44.2197 20.4383C43.2795 20.0595 42.2585 19.9247 41.2521 20.0465C40.2456 20.1683 39.2864 20.5428 38.4639 21.135C37.6414 21.7272 36.9823 22.5178 36.5481 23.4332C36.1139 24.3486 35.9187 25.359 35.9807 26.3701C36.0428 27.3812 36.36 28.3602 36.9029 29.2157C37.4457 30.0713 38.1965 30.7756 39.0853 31.2629C39.9741 31.7503 40.9719 32.0049 41.9857 32.0029C43.3667 32.0035 44.7052 31.5253 45.7728 30.65C46.8405 29.7747 47.5712 28.5564 47.8403 27.2029C49.3985 26.4912 50.8182 25.5094 52.0337 24.3029C52.6403 23.6946 53.1897 23.0318 53.675 22.3229L57.1477 25.8729C57.6965 26.43 58.0023 27.1813 57.9984 27.9629V55.0029C57.996 55.7979 57.6789 56.5595 57.1164 57.1216C56.5538 57.6837 55.7915 58.0006 54.996 58.0029H28.9754C28.1798 58.0006 27.4175 57.6837 26.855 57.1216C26.2924 56.5595 25.9753 55.7979 25.973 55.0029V27.9729ZM45.3984 28.0629C45.0466 28.6535 44.5474 29.1427 43.9497 29.4827C43.3521 29.8228 42.6763 30.0021 41.9885 30.0031C41.3007 30.0041 40.6245 29.8268 40.0258 29.4885C39.4271 29.1502 38.9265 28.6624 38.573 28.0729C40.8126 28.6446 43.1605 28.6411 45.3984 28.0629ZM39.2635 23.0829C40.0019 22.3892 40.9772 22.003 41.9907 22.003C43.0042 22.003 43.9795 22.3892 44.7178 23.0829C42.9429 23.6429 41.0384 23.6429 39.2635 23.0829Z" fill="black"/>
<path d="M35.981 42.0029C38.1919 42.0029 39.9841 40.2121 39.9841 38.0029C39.9841 35.7938 38.1919 34.0029 35.981 34.0029C33.7701 34.0029 31.9778 35.7938 31.9778 38.0029C31.9778 40.2121 33.7701 42.0029 35.981 42.0029Z" fill="black"/>
<path d="M47.9905 54.0029C50.2014 54.0029 51.9937 52.2121 51.9937 50.0029C51.9937 47.7938 50.2014 46.0029 47.9905 46.0029C45.7796 46.0029 43.9873 47.7938 43.9873 50.0029C43.9873 52.2121 45.7796 54.0029 47.9905 54.0029Z" fill="black"/>
<path d="M33.7692 52.213C34.3623 52.7852 35.1556 53.1032 35.98 53.0995C36.8044 53.0958 37.5947 52.7705 38.1827 52.193C41.135 49.153 47.1198 43.123 50.1121 40.123C50.3912 39.8449 50.6127 39.5145 50.7638 39.1507C50.9149 38.7869 50.9927 38.3969 50.9927 38.003C50.9927 37.6092 50.9149 37.2192 50.7638 36.8554C50.6127 36.4916 50.3912 36.1612 50.1121 35.883C49.5401 35.3398 48.7816 35.036 47.9924 35.0342C47.2033 35.0323 46.4433 35.3325 45.8688 35.873C45.8688 35.873 36.8316 44.853 33.7892 47.803C33.2091 48.3894 32.8821 49.1795 32.8784 50.0039C32.8746 50.8284 33.1944 51.6215 33.7692 52.213Z" fill="black"/>
</svg>
