<svg width="70" height="60" viewBox="0 0 70 60" fill="none" xmlns="http://www.w3.org/2000/svg">
<path d="M65.0771 50.7922C63.6432 46.3306 60.168 42.7833 55.7586 41.234C63.4442 36.3377 60.0314 24.2775 50.7962 24.2307C41.5606 24.2778 38.1487 36.3401 45.8347 41.2343C41.4329 42.7809 37.9604 46.3183 36.5272 50.7692H35.7884C36.3089 43.7942 33.2351 37.7035 27.0376 34.823C34.8982 28.9153 30.7427 16.1801 20.7802 16.1538C10.8177 16.1804 6.66248 28.9172 14.5232 34.823C8.32152 37.7076 5.25343 43.7929 5.77232 50.7692H4.61785C2.06653 50.7692 0 52.8346 0 55.3846C0 57.9346 2.06653 60 4.61785 60H64.6499C70.4797 59.8624 70.8787 51.4534 65.0771 50.7922ZM12.6991 26.5384C12.6991 22.0846 16.3241 18.4615 20.7803 18.4615C29.4397 18.5499 31.9157 30.2243 24.1859 33.8538C19.0878 36.3926 12.5813 32.368 12.6991 26.5384ZM8.08124 48.4615C8.08124 42.7038 11.9372 37.823 17.2015 36.2769C17.8596 36.5307 18.5522 36.7038 19.2564 36.8192L16.2087 46.973C16.1048 47.3307 16.174 47.6999 16.3934 47.9999C16.6127 48.2884 16.9475 48.4615 17.3169 48.4615H24.2437C24.6132 48.4615 24.9479 48.2884 25.1673 47.9999C25.3866 47.6999 25.4559 47.3307 25.352 46.973L22.3042 36.8192C23.0084 36.7038 23.7012 36.5307 24.3592 36.2769C29.6236 37.823 33.4794 42.7038 33.4794 48.4615V50.7692H8.08124V48.4615ZM35.7884 55.3846V57.6923H4.61785C3.34797 57.6923 2.30893 56.6538 2.30893 55.3846C2.30893 54.1153 3.34797 53.0769 4.61785 53.0769H35.9615C35.8461 53.8384 35.7884 54.6 35.7884 55.3846ZM50.7964 40.3846C46.9767 40.3846 43.8696 37.2791 43.8696 33.4615C44.1946 24.2987 57.3996 24.301 57.7232 33.4616C57.7232 37.2791 54.616 40.3846 50.7964 40.3846ZM65.8044 57.3807C65.7964 56.1726 65.8577 54.4812 65.6543 53.3077C67.2864 54.0111 67.3835 56.5626 65.8044 57.3807Z" fill="black"/>
<path d="M61.1865 0H40.4062C37.8599 0 35.7883 2.06994 35.7883 4.61538V13.8462C35.7883 16.3916 37.8599 18.4615 40.4062 18.4615H47.3719L49.8065 22.5169C50.0151 22.864 50.3911 23.0769 50.7964 23.0769C51.2017 23.0769 51.5777 22.864 51.7862 22.5169L54.2209 18.4615H61.1865C63.7328 18.4615 65.8044 16.3916 65.8044 13.8462V4.61538C65.8044 2.06994 63.7328 0 61.1865 0ZM50.7964 16.1538C49.2797 16.1248 49.28 13.875 50.7964 13.8462C52.3129 13.8755 52.3127 16.1247 50.7964 16.1538ZM53.1052 10.3846C52.4689 10.3846 51.9508 10.9018 51.9508 11.5385C51.9267 13.0531 49.6669 13.0565 49.6419 11.5384C49.6419 9.62965 51.1955 8.07692 53.1053 8.07692C54.6219 8.05051 54.6226 5.79571 53.1053 5.76923H50.7964C49.2803 5.74543 49.2783 3.48605 50.7964 3.46154C50.7964 3.46154 53.1053 3.46154 53.1053 3.46154C57.6723 3.58176 57.6714 10.2653 53.1052 10.3846ZM19.6259 10.3846V12.6923C19.6512 14.2083 21.9094 14.2094 21.9348 12.6923V10.3846C21.9094 8.86829 19.6512 8.86765 19.6259 10.3846ZM14.1682 11.7537C14.1681 11.7537 14.9578 13.9216 14.9578 13.9216C15.5056 15.3449 17.622 14.557 17.127 13.1328C17.127 13.1329 16.3372 10.9649 16.3372 10.9649C15.7959 9.54839 13.6728 10.3196 14.1682 11.7537ZM25.2234 10.9649L24.4337 13.1329C23.9391 14.5567 26.0546 15.3456 26.6028 13.9216C26.6028 13.9217 27.3926 11.7537 27.3926 11.7537C27.8878 10.3206 25.765 9.5476 25.2234 10.9649Z" fill="black"/>
</svg>
