<svg width="60" height="60" viewBox="0 0 60 60" fill="none" xmlns="http://www.w3.org/2000/svg">
<path d="M0 38.604V60H13.4569V38.604H0ZM8.31904 56.112C8.00497 56.1096 7.69864 56.0144 7.43865 55.8382C7.17867 55.6621 6.97667 55.4129 6.85812 55.1222C6.73957 54.8315 6.70978 54.5122 6.7725 54.2045C6.83522 53.8969 6.98765 53.6147 7.21057 53.3935C7.43348 53.1724 7.71691 53.0221 8.02512 52.9617C8.33333 52.9014 8.65253 52.9335 8.94247 53.0542C9.23241 53.1749 9.48012 53.3787 9.65437 53.6399C9.82862 53.9011 9.92161 54.208 9.92162 54.522C9.92179 54.7319 9.88036 54.9397 9.79973 55.1334C9.7191 55.3272 9.60087 55.5031 9.45187 55.6509C9.30286 55.7988 9.12604 55.9156 8.9316 55.9948C8.73716 56.0739 8.52897 56.1137 8.31904 56.112ZM31.278 56.9352H15.4544V41.7012L15.6321 41.3694C16.6076 39.659 18.0725 38.2794 19.8384 37.4076C21.4959 36.6113 23.3032 36.1747 25.1414 36.1265C26.9797 36.0783 28.8074 36.4196 30.5043 37.128C31.5966 37.5743 32.6627 38.0821 33.6975 38.649C34.5486 39.0948 35.3529 39.5166 36.1836 39.8676C36.5336 39.9959 36.8919 40.0999 37.2562 40.179C38.5125 40.4886 40.2333 40.9128 40.9409 42.5298C41.3462 43.5659 41.5011 44.683 41.3929 45.7902L48.9467 45.6786L52.8697 41.3358C53.6007 40.5384 54.6171 40.0617 55.6978 40.0096C56.7786 39.9574 57.8362 40.334 58.6406 41.0574C59.445 41.7808 59.9312 42.7924 59.9932 43.8722C60.0553 44.952 59.6883 46.0127 58.9721 46.8234L53.0606 53.4174L31.278 56.9352ZM18.4585 53.9322H31.0367L51.5324 50.6226L56.7351 44.8188C56.8353 44.7068 56.9115 44.5755 56.9589 44.433C57.0064 44.2905 57.0242 44.1397 57.0111 43.9901C56.9981 43.8404 56.9545 43.695 56.8831 43.5629C56.8117 43.4307 56.7139 43.3146 56.5959 43.2216C56.3764 43.05 56.1002 42.9678 55.8227 42.9914C55.5451 43.015 55.2868 43.1427 55.0995 43.3488L50.2996 48.6618L31.6988 48.9366L31.655 45.9342L38.3822 45.8346C38.4743 45.129 38.4087 44.4118 38.1901 43.7346C38.0749 43.4742 37.0737 43.227 36.5365 43.0944C36.0177 42.981 35.5086 42.8271 35.0138 42.6342C34.0678 42.234 33.1699 41.7636 32.302 41.3082C31.3668 40.7945 30.4035 40.3335 29.4167 39.9276C28.1167 39.3738 26.7143 39.1007 25.3014 39.1262C23.8885 39.1517 22.4969 39.4753 21.2177 40.0758C20.106 40.6273 19.1555 41.4565 18.4585 42.483V53.9322ZM35.3745 14.502C33.5422 14.5026 31.7512 15.0463 30.228 16.0644C28.7048 17.0825 27.5178 18.5293 26.8172 20.2217C26.1165 21.9142 25.9337 23.7763 26.2917 25.5727C26.6498 27.369 27.5327 29.0189 28.8287 30.3136C30.1248 31.6084 31.7758 32.4899 33.5731 32.8466C35.3703 33.2034 37.233 33.0194 38.9256 32.3179C40.6182 31.6164 42.0647 30.4289 43.0822 28.9056C44.0997 27.3823 44.6425 25.5917 44.6419 23.76C44.6381 21.3048 43.6603 18.9513 41.923 17.2157C40.1856 15.4801 37.8307 14.5042 35.3745 14.502ZM30.772 0H33.7731V11.1H30.772V0ZM36.9741 3.4002H39.9752V11.1H36.9741V3.4002Z" fill="black"/>
</svg>
