<svg width="18" height="16" viewBox="0 0 18 16" fill="none" xmlns="http://www.w3.org/2000/svg">
<path d="M17.9724 13.8527L17.1153 10.5505L14.4156 0.635382C14.3573 0.416668 14.2145 0.229943 14.0185 0.116099C13.8225 0.00225496 13.5893 -0.0294296 13.37 0.0279838L10.0532 0.883475C9.97407 0.795911 9.87763 0.72563 9.76996 0.677048C9.66229 0.628465 9.54572 0.602629 9.42758 0.601163H0.857052C0.629748 0.601163 0.411753 0.691295 0.251025 0.85173C0.0902963 1.01217 0 1.22976 0 1.45665V15.1445C0 15.3714 0.0902963 15.589 0.251025 15.7494C0.411753 15.9099 0.629748 16 0.857052 16H9.42758C9.65488 16 9.87287 15.9099 10.0336 15.7494C10.1943 15.589 10.2846 15.3714 10.2846 15.1445V8.30058L12.1701 15.3327C12.2204 15.5194 12.3324 15.6835 12.488 15.7985C12.6437 15.9134 12.8337 15.9724 13.0272 15.9658C13.1012 15.9742 13.176 15.9742 13.25 15.9658L17.3896 14.8622C17.499 14.833 17.6016 14.7824 17.6913 14.7134C17.7811 14.6444 17.8562 14.5583 17.9124 14.4601C18.0028 14.2708 18.024 14.056 17.9724 13.8527ZM4.25955 14.3232H1.68839V12.6123H4.25955V14.3232ZM4.25955 10.9013H1.68839V5.76833H4.25955V10.9013ZM4.25955 4.05735H1.68839V2.34636H4.25955V4.05735ZM8.54481 14.3232H5.97365V12.6123H8.54481V14.3232ZM8.54481 10.9013H5.97365V5.76833H8.54481V10.9013ZM8.54481 4.05735H5.97365V2.34636H8.54481V4.05735ZM10.4732 2.56879L12.9586 1.90151L13.4043 3.55261L10.9188 4.21989L10.4732 2.56879ZM12.6929 10.8328L11.3645 5.87099L13.85 5.2037L15.1784 10.1656L12.6929 10.8328ZM13.55 14.135L13.1043 12.4839L15.5898 11.8166L16.0354 13.4677L13.55 14.135Z" fill="black"/>
</svg>
