<svg width="14" height="16" viewBox="0 0 14 16" fill="none" xmlns="http://www.w3.org/2000/svg">
<path d="M13.9668 6.11205C13.8511 4.95031 13.4259 3.83727 12.7325 2.88133C12.0391 1.92539 11.1011 1.15911 10.0099 0.657121C8.91865 0.155132 7.7114 -0.0654623 6.50567 0.0168191C5.29994 0.0991005 4.13682 0.481453 3.12958 1.12665C2.26425 1.68533 1.53781 2.42213 1.00245 3.28412C0.467088 4.1461 0.136094 5.11187 0.0332439 6.11205C-0.0676486 7.10568 0.0617976 8.10853 0.412191 9.04785C0.762585 9.98717 1.32514 10.8394 2.05904 11.5427L6.42355 15.7648C6.50011 15.8393 6.59119 15.8985 6.69154 15.9389C6.79189 15.9792 6.89952 16 7.00823 16C7.11695 16 7.22458 15.9792 7.32493 15.9389C7.42528 15.8985 7.51636 15.8393 7.59292 15.7648L11.941 11.5427C12.6749 10.8394 13.2374 9.98717 13.5878 9.04785C13.9382 8.10853 14.0676 7.10568 13.9668 6.11205ZM10.7881 10.4216L7 14.0792L3.21193 10.4216C2.65367 9.88255 2.22604 9.23077 1.95978 8.51312C1.69352 7.79547 1.59523 7.02977 1.672 6.27107C1.74926 5.50068 2.00285 4.7565 2.41443 4.09232C2.82602 3.42814 3.38532 2.86057 4.05189 2.43064C4.92557 1.87027 5.95112 1.57135 7 1.57135C8.04888 1.57135 9.07443 1.87027 9.94811 2.43064C10.6127 2.85891 11.1707 3.42397 11.5822 4.08524C11.9937 4.74651 12.2484 5.48756 12.328 6.25517C12.4073 7.01644 12.3102 7.7852 12.0439 8.50579C11.7776 9.22639 11.3486 9.88078 10.7881 10.4216ZM7 3.22576C6.26708 3.22576 5.55061 3.43561 4.94121 3.82877C4.33181 4.22193 3.85684 4.78074 3.57636 5.43455C3.29588 6.08835 3.2225 6.80777 3.36548 7.50184C3.50847 8.19592 3.86141 8.83346 4.37966 9.33386C4.89791 9.83426 5.55821 10.175 6.27705 10.3131C6.99589 10.4512 7.74099 10.3803 8.41812 10.1095C9.09525 9.83867 9.674 9.38006 10.0812 8.79165C10.4884 8.20325 10.7057 7.51147 10.7057 6.8038C10.7035 5.85549 10.3124 4.94662 9.61794 4.27607C8.92345 3.60551 7.98215 3.22786 7 3.22576ZM7 8.7916C6.59282 8.7916 6.19479 8.67502 5.85623 8.4566C5.51767 8.23818 5.2538 7.92772 5.09798 7.5645C4.94216 7.20128 4.90139 6.8016 4.98082 6.416C5.06026 6.03041 5.25634 5.67621 5.54426 5.39822C5.83217 5.12022 6.19901 4.9309 6.59836 4.8542C6.99772 4.7775 7.41166 4.81686 7.78784 4.96731C8.16403 5.11777 8.48556 5.37255 8.71177 5.69944C8.93799 6.02633 9.05873 6.41065 9.05873 6.8038C9.05873 7.331 8.84183 7.8366 8.45574 8.20939C8.06966 8.58217 7.54601 8.7916 7 8.7916Z" fill="#1A2B49"/>
</svg>
