<svg width="26" height="19" viewBox="0 0 26 19" fill="none" xmlns="http://www.w3.org/2000/svg">
<path opacity="0.3" d="M9.09996 6.49998C10.1769 6.49998 11.05 5.62693 11.05 4.54998C11.05 3.47302 10.1769 2.59998 9.09996 2.59998C8.02301 2.59998 7.14996 3.47302 7.14996 4.54998C7.14996 5.62693 8.02301 6.49998 9.09996 6.49998Z" fill="#1A2B49"/>
<path opacity="0.3" d="M3.04199 15.6H15.158C14.066 14.846 11.427 13.975 9.09999 13.975C6.77299 13.975 4.13399 14.846 3.04199 15.6Z" fill="#1A2B49"/>
<path d="M9.1 9.1C11.609 9.1 13.65 7.059 13.65 4.55C13.65 2.041 11.609 0 9.1 0C6.591 0 4.55 2.041 4.55 4.55C4.55 7.059 6.591 9.1 9.1 9.1ZM9.1 2.6C10.179 2.6 11.05 3.471 11.05 4.55C11.05 5.629 10.179 6.5 9.1 6.5C8.021 6.5 7.15 5.629 7.15 4.55C7.15 3.471 8.021 2.6 9.1 2.6ZM9.1 11.375C6.058 11.375 0 12.896 0 15.925V18.2H18.2V15.925C18.2 12.896 12.142 11.375 9.1 11.375ZM3.042 15.6C4.134 14.846 6.773 13.975 9.1 13.975C11.427 13.975 14.066 14.846 15.158 15.6H3.042ZM18.252 11.453C19.76 12.545 20.8 14.001 20.8 15.925V18.2H26V15.925C26 13.299 21.45 11.804 18.252 11.453ZM16.9 9.1C19.409 9.1 21.45 7.059 21.45 4.55C21.45 2.041 19.409 0 16.9 0C16.198 0 15.548 0.169 14.95 0.455C15.769 1.612 16.25 3.029 16.25 4.55C16.25 6.071 15.769 7.488 14.95 8.645C15.548 8.931 16.198 9.1 16.9 9.1Z" fill="#1A2B49"/>
</svg>
