<svg width="18" height="18" viewBox="0 0 18 18" fill="none" xmlns="http://www.w3.org/2000/svg">
<path d="M8.75 16.75C13.1683 16.75 16.75 13.1683 16.75 8.75C16.75 4.33172 13.1683 0.75 8.75 0.75C4.33172 0.75 0.75 4.33172 0.75 8.75C0.75 13.1683 4.33172 16.75 8.75 16.75Z" stroke="black" stroke-width="1.5" stroke-miterlimit="10"/>
<path d="M1.20557 6.08333H16.2943" stroke="black" stroke-width="1.5" stroke-linecap="round" stroke-linejoin="round"/>
<path d="M1.20581 11.4167H16.2944" stroke="black" stroke-width="1.5" stroke-linecap="round" stroke-linejoin="round"/>
<path d="M8.75008 16.5353C10.591 16.5353 12.0834 13.0497 12.0834 8.75C12.0834 4.45033 10.591 0.964752 8.75008 0.964752C6.90913 0.964752 5.41675 4.45033 5.41675 8.75C5.41675 13.0497 6.90913 16.5353 8.75008 16.5353Z" stroke="black" stroke-width="1.5" stroke-miterlimit="10"/>
</svg>
